# xmcd CD Database Entry
#
# Track frame offsets:
# 183
# 15170
# 21268
# 35005
# 42935
# 51603
# 74590
# 82588
# 103355
# 123855
# 135640
# 144908
# 157663
# 182853
# 190953
# 201643
# 211210
# 261268
# 280955
# 300985
#
# Disc length: 4243 seconds
#
# Revision: 2
# Processed by: cddbd v1.4PL0 Copyright (c) Steve Scherf et al.
# Submitted via: tcd 2.0b
#
DISCID=1f109114
DTITLE=Elisabeth Schwartzkopf - Mozart Lieder and Concert Arias
DYEAR=1900
DGENRE=
TTITLE0=Ridente la calma
TTITLE1=Diseaux, si tous les ans
TTITLE2=Dans un bois solitaire
TTITLE3=Die kliene Spinnerin
TTITLE4=Ais Luise die Briefe
TTITLE5=Abendemfindung
TTITLE6=Das Kinderspiel
TTITLE7=Die Alte
TTITLE8=Das Traumbild
TTITLE9=Das Veilchen
TTITLE10=Der Zauberer
TTITLE11=Im Fruhingsanfang
TTITLE12=Das Lied der Trennung
TTITLE13=Die Aufriedenheit
TTITLE14=Ah Chloe
TTITLE15=Sensucht nach dem Fruhlinge
TTITLE16=Ch'io mi scordi di te?
TTITLE17=Vado, ma dove?
TTITLE18=Alma grande e nobil core
TTITLE19=Nehmt meinen Dank
EXTD=
EXTT0=
EXTT1=
EXTT2=
EXTT3=
EXTT4=
EXTT5=
EXTT6=
EXTT7=
EXTT8=
EXTT9=
EXTT10=
EXTT11=
EXTT12=
EXTT13=
EXTT14=
EXTT15=
EXTT16=
EXTT17=
EXTT18=
EXTT19=
PLAYORDER=
